<mxfile host="drawio-plugin" modified="2023-06-02T10:31:34.958Z" agent="5.0 (X11; Linux x86_64) AppleWebKit/537.36 (KHTML, like Gecko) Chrome/104.0.5112.102 Safari/537.36" etag="N3AW9PwtDqf-aq4ogxEj" version="20.5.3" type="embed"><diagram name="Seite-1" id="DrD-UzKnuhGf0NxtWh-D"><mxGraphModel dx="1366" dy="752" grid="1" gridSize="10" guides="1" tooltips="1" connect="1" arrows="1" fold="1" page="1" pageScale="1" pageWidth="827" pageHeight="1169" math="0" shadow="0"><root><mxCell id="0"/><mxCell id="1" parent="0"/><mxCell id="XscAAmb412mFf9nTwe-L-1" value="User" style="rounded=0;whiteSpace=wrap;html=1;" parent="1" vertex="1"><mxGeometry x="190" y="280" width="110" height="40" as="geometry"/></mxCell><mxCell id="XscAAmb412mFf9nTwe-L-8" style="edgeStyle=none;curved=1;rounded=0;orthogonalLoop=1;jettySize=auto;html=1;exitX=0.5;exitY=1;exitDx=0;exitDy=0;entryX=0.5;entryY=0;entryDx=0;entryDy=0;fontSize=12;startSize=8;endSize=8;endArrow=none;endFill=0;" parent="1" source="XscAAmb412mFf9nTwe-L-2" target="XscAAmb412mFf9nTwe-L-1" edge="1"><mxGeometry relative="1" as="geometry"/></mxCell><mxCell id="XscAAmb412mFf9nTwe-L-2" value="UserID" style="ellipse;whiteSpace=wrap;html=1;align=center;fontStyle=4;fontSize=16;" parent="1" vertex="1"><mxGeometry x="190" y="170" width="100" height="40" as="geometry"/></mxCell><mxCell id="XscAAmb412mFf9nTwe-L-9" style="edgeStyle=none;curved=1;rounded=0;orthogonalLoop=1;jettySize=auto;html=1;exitX=1;exitY=1;exitDx=0;exitDy=0;entryX=0.25;entryY=0;entryDx=0;entryDy=0;fontSize=12;startSize=8;endSize=8;endArrow=none;endFill=0;" parent="1" source="XscAAmb412mFf9nTwe-L-3" target="XscAAmb412mFf9nTwe-L-1" edge="1"><mxGeometry relative="1" as="geometry"/></mxCell><mxCell id="XscAAmb412mFf9nTwe-L-3" value="First Name" style="ellipse;whiteSpace=wrap;html=1;align=center;fontSize=16;" parent="1" vertex="1"><mxGeometry x="70" y="170" width="100" height="40" as="geometry"/></mxCell><mxCell id="XscAAmb412mFf9nTwe-L-10" style="edgeStyle=none;curved=1;rounded=0;orthogonalLoop=1;jettySize=auto;html=1;exitX=1;exitY=1;exitDx=0;exitDy=0;entryX=0.014;entryY=0.357;entryDx=0;entryDy=0;entryPerimeter=0;fontSize=12;startSize=8;endSize=8;endArrow=none;endFill=0;" parent="1" source="XscAAmb412mFf9nTwe-L-4" target="XscAAmb412mFf9nTwe-L-1" edge="1"><mxGeometry relative="1" as="geometry"/></mxCell><mxCell id="XscAAmb412mFf9nTwe-L-4" value="Last Name" style="ellipse;whiteSpace=wrap;html=1;align=center;fontSize=16;" parent="1" vertex="1"><mxGeometry x="20" y="220" width="100" height="40" as="geometry"/></mxCell><mxCell id="XscAAmb412mFf9nTwe-L-11" style="edgeStyle=none;curved=1;rounded=0;orthogonalLoop=1;jettySize=auto;html=1;exitX=1;exitY=0.5;exitDx=0;exitDy=0;entryX=0.009;entryY=0.6;entryDx=0;entryDy=0;entryPerimeter=0;fontSize=12;startSize=8;endSize=8;endArrow=none;endFill=0;" parent="1" source="XscAAmb412mFf9nTwe-L-5" target="XscAAmb412mFf9nTwe-L-1" edge="1"><mxGeometry relative="1" as="geometry"/></mxCell><mxCell id="XscAAmb412mFf9nTwe-L-5" value="EMail" style="ellipse;whiteSpace=wrap;html=1;align=center;fontSize=16;" parent="1" vertex="1"><mxGeometry x="20" y="280" width="100" height="40" as="geometry"/></mxCell><mxCell id="XscAAmb412mFf9nTwe-L-12" style="edgeStyle=none;curved=1;rounded=0;orthogonalLoop=1;jettySize=auto;html=1;exitX=1;exitY=0;exitDx=0;exitDy=0;entryX=0.004;entryY=0.871;entryDx=0;entryDy=0;entryPerimeter=0;fontSize=12;startSize=8;endSize=8;endArrow=none;endFill=0;" parent="1" source="XscAAmb412mFf9nTwe-L-6" target="XscAAmb412mFf9nTwe-L-1" edge="1"><mxGeometry relative="1" as="geometry"/></mxCell><mxCell id="XscAAmb412mFf9nTwe-L-6" value="AccountClass" style="ellipse;whiteSpace=wrap;html=1;align=center;fontSize=16;" parent="1" vertex="1"><mxGeometry x="40" y="340" width="100" height="40" as="geometry"/></mxCell><mxCell id="XscAAmb412mFf9nTwe-L-13" style="edgeStyle=none;curved=1;rounded=0;orthogonalLoop=1;jettySize=auto;html=1;exitX=1;exitY=0;exitDx=0;exitDy=0;entryX=0.25;entryY=1;entryDx=0;entryDy=0;fontSize=12;startSize=8;endSize=8;endArrow=none;endFill=0;" parent="1" source="XscAAmb412mFf9nTwe-L-7" target="XscAAmb412mFf9nTwe-L-1" edge="1"><mxGeometry relative="1" as="geometry"/></mxCell><mxCell id="XscAAmb412mFf9nTwe-L-7" value="Created" style="ellipse;whiteSpace=wrap;html=1;align=center;fontSize=16;" parent="1" vertex="1"><mxGeometry x="100" y="390" width="100" height="40" as="geometry"/></mxCell><mxCell id="XscAAmb412mFf9nTwe-L-28" style="edgeStyle=none;curved=1;rounded=0;orthogonalLoop=1;jettySize=auto;html=1;exitX=0.5;exitY=0;exitDx=0;exitDy=0;entryX=1;entryY=1;entryDx=0;entryDy=0;fontSize=12;startSize=8;endSize=8;endArrow=none;endFill=0;" parent="1" source="XscAAmb412mFf9nTwe-L-15" target="XscAAmb412mFf9nTwe-L-26" edge="1"><mxGeometry relative="1" as="geometry"/></mxCell><mxCell id="XscAAmb412mFf9nTwe-L-15" value="UserPassKey" style="shape=ext;margin=3;double=1;whiteSpace=wrap;html=1;align=center;fontSize=16;" parent="1" vertex="1"><mxGeometry x="500" y="180" width="110" height="40" as="geometry"/></mxCell><mxCell id="XscAAmb412mFf9nTwe-L-18" style="edgeStyle=none;curved=1;rounded=0;orthogonalLoop=1;jettySize=auto;html=1;exitX=1;exitY=0;exitDx=0;exitDy=0;entryX=0;entryY=0.5;entryDx=0;entryDy=0;fontSize=12;startSize=8;endSize=8;endArrow=none;endFill=0;" parent="1" source="XscAAmb412mFf9nTwe-L-17" target="XscAAmb412mFf9nTwe-L-15" edge="1"><mxGeometry relative="1" as="geometry"/></mxCell><mxCell id="XscAAmb412mFf9nTwe-L-19" style="edgeStyle=none;curved=1;rounded=0;orthogonalLoop=1;jettySize=auto;html=1;exitX=0.261;exitY=0.789;exitDx=0;exitDy=0;entryX=1;entryY=0.5;entryDx=0;entryDy=0;fontSize=12;startSize=8;endSize=8;exitPerimeter=0;" parent="1" source="XscAAmb412mFf9nTwe-L-17" target="XscAAmb412mFf9nTwe-L-1" edge="1"><mxGeometry relative="1" as="geometry"/></mxCell><mxCell id="XscAAmb412mFf9nTwe-L-17" value="canLogin" style="shape=rhombus;perimeter=rhombusPerimeter;whiteSpace=wrap;html=1;align=center;fontSize=16;" parent="1" vertex="1"><mxGeometry x="350" y="210" width="120" height="60" as="geometry"/></mxCell><mxCell id="XscAAmb412mFf9nTwe-L-22" value="UserMagicLinkKey" style="shape=ext;margin=3;double=1;whiteSpace=wrap;html=1;align=center;fontSize=16;" parent="1" vertex="1"><mxGeometry x="500" y="380" width="150" height="40" as="geometry"/></mxCell><mxCell id="XscAAmb412mFf9nTwe-L-23" style="edgeStyle=none;curved=1;rounded=0;orthogonalLoop=1;jettySize=auto;html=1;exitX=1;exitY=1;exitDx=0;exitDy=0;entryX=0;entryY=0.5;entryDx=0;entryDy=0;fontSize=12;startSize=8;endSize=8;endArrow=none;endFill=0;" parent="1" source="XscAAmb412mFf9nTwe-L-25" target="XscAAmb412mFf9nTwe-L-22" edge="1"><mxGeometry relative="1" as="geometry"/></mxCell><mxCell id="XscAAmb412mFf9nTwe-L-24" style="edgeStyle=none;curved=1;rounded=0;orthogonalLoop=1;jettySize=auto;html=1;entryX=1;entryY=0.5;entryDx=0;entryDy=0;fontSize=12;startSize=8;endSize=8;" parent="1" source="XscAAmb412mFf9nTwe-L-25" target="XscAAmb412mFf9nTwe-L-1" edge="1"><mxGeometry relative="1" as="geometry"><mxPoint x="310" y="440" as="targetPoint"/></mxGeometry></mxCell><mxCell id="XscAAmb412mFf9nTwe-L-25" value="&lt;font style=&quot;font-size: 10px;&quot;&gt;canUseMagicLink&lt;/font&gt;" style="shape=rhombus;perimeter=rhombusPerimeter;whiteSpace=wrap;html=1;align=center;fontSize=16;" parent="1" vertex="1"><mxGeometry x="350" y="330" width="120" height="60" as="geometry"/></mxCell><mxCell id="XscAAmb412mFf9nTwe-L-26" value="password_hash" style="ellipse;whiteSpace=wrap;html=1;align=center;fontSize=13;" parent="1" vertex="1"><mxGeometry x="430" y="110" width="100" height="40" as="geometry"/></mxCell><mxCell id="XscAAmb412mFf9nTwe-L-29" style="edgeStyle=none;curved=1;rounded=0;orthogonalLoop=1;jettySize=auto;html=1;exitX=0.5;exitY=1;exitDx=0;exitDy=0;entryX=0.5;entryY=0;entryDx=0;entryDy=0;fontSize=12;startSize=8;endSize=8;endArrow=none;endFill=0;" parent="1" source="XscAAmb412mFf9nTwe-L-27" target="XscAAmb412mFf9nTwe-L-15" edge="1"><mxGeometry relative="1" as="geometry"/></mxCell><mxCell id="XscAAmb412mFf9nTwe-L-27" value="last updated" style="ellipse;whiteSpace=wrap;html=1;align=center;fontSize=13;" parent="1" vertex="1"><mxGeometry x="567" y="110" width="100" height="40" as="geometry"/></mxCell><mxCell id="XscAAmb412mFf9nTwe-L-32" style="edgeStyle=none;curved=1;rounded=0;orthogonalLoop=1;jettySize=auto;html=1;exitX=0.5;exitY=1;exitDx=0;exitDy=0;fontSize=12;startSize=8;endSize=8;endArrow=none;endFill=0;" parent="1" source="XscAAmb412mFf9nTwe-L-31" target="XscAAmb412mFf9nTwe-L-22" edge="1"><mxGeometry relative="1" as="geometry"/></mxCell><mxCell id="XscAAmb412mFf9nTwe-L-31" value="Code" style="ellipse;whiteSpace=wrap;html=1;align=center;fontStyle=4;fontSize=16;" parent="1" vertex="1"><mxGeometry x="525" y="310" width="100" height="40" as="geometry"/></mxCell></root></mxGraphModel></diagram></mxfile>